<svg fill="none" xmlns="http://www.w3.org/2000/svg">

<symbol id="arrow-left" viewBox="0 0 20 18">
	<path fill="currentColor" d="M18.75 8.00291H3.925L8.4625 2.55291C8.67467 2.29764 8.77675 1.96854 8.74628 1.638C8.7158 1.30747 8.55527 1.00258 8.3 0.790408C8.04473 0.578235 7.71563 0.476157 7.3851 0.506632C7.05456 0.537107 6.74967 0.697637 6.5375 0.952908L0.2875 8.45291C0.245451 8.51256 0.207849 8.57523 0.175 8.64041C0.175 8.70291 0.175 8.74041 0.0875002 8.80291C0.0308421 8.94623 0.0011764 9.0988 0 9.25291C0.0011764 9.40702 0.0308421 9.55958 0.0875002 9.70291C0.0875002 9.76541 0.0874998 9.80291 0.175 9.86541C0.207849 9.93058 0.245451 9.99325 0.2875 10.0529L6.5375 17.5529C6.65503 17.694 6.8022 17.8075 6.96856 17.8853C7.13491 17.963 7.31636 18.0032 7.5 18.0029C7.79207 18.0035 8.07511 17.9018 8.3 17.7154C8.42657 17.6105 8.5312 17.4816 8.60789 17.3362C8.68458 17.1907 8.73183 17.0316 8.74692 16.8679C8.76202 16.7042 8.74466 16.5391 8.69586 16.3821C8.64705 16.2251 8.56775 16.0792 8.4625 15.9529L3.925 10.5029H18.75C19.0815 10.5029 19.3995 10.3712 19.6339 10.1368C19.8683 9.90237 20 9.58443 20 9.25291C20 8.92139 19.8683 8.60345 19.6339 8.36902C19.3995 8.1346 19.0815 8.00291 18.75 8.00291Z" />
</symbol>

<symbol id="arrow-right" viewBox="0 0 20 18">
	<path fill="currentColor" d="M1.25 8.00291H16.075L11.5375 2.55291C11.3253 2.29764 11.2232 1.96854 11.2537 1.638C11.2842 1.30747 11.4447 1.00258 11.7 0.790408C11.9553 0.578235 12.2844 0.476157 12.6149 0.506632C12.9454 0.537107 13.2503 0.697637 13.4625 0.952908L19.7125 8.45291C19.7545 8.51256 19.7922 8.57523 19.825 8.64041C19.825 8.70291 19.825 8.74041 19.9125 8.80291C19.9692 8.94623 19.9988 9.0988 20 9.25291C19.9988 9.40702 19.9692 9.55958 19.9125 9.70291C19.9125 9.76541 19.9125 9.80291 19.825 9.86541C19.7922 9.93058 19.7545 9.99325 19.7125 10.0529L13.4625 17.5529C13.345 17.694 13.1978 17.8075 13.0314 17.8853C12.8651 17.963 12.6836 18.0032 12.5 18.0029C12.2079 18.0035 11.9249 17.9018 11.7 17.7154C11.5734 17.6105 11.4688 17.4816 11.3921 17.3362C11.3154 17.1907 11.2682 17.0316 11.2531 16.8679C11.238 16.7042 11.2553 16.5391 11.3041 16.3821C11.3529 16.2251 11.4322 16.0792 11.5375 15.9529L16.075 10.5029H1.25C0.91848 10.5029 0.600536 10.3712 0.366116 10.1368C0.131695 9.90237 0 9.58443 0 9.25291C0 8.92139 0.131695 8.60345 0.366116 8.36902C0.600536 8.1346 0.91848 8.00291 1.25 8.00291Z" />
</symbol>

<symbol id="facebook" viewBox="0 0 10 20">
	<path fill="currentColor" d="M6.4908 19.9999V10.8769H9.43911L9.88051 7.32157H6.4908V5.05157C6.4908 4.02223 6.76604 3.32068 8.18733 3.32068L10 3.31981V0.139943C9.68636 0.0967723 8.61042 0 7.35864 0C4.74517 0 2.95593 1.65682 2.95593 4.69964V7.32167H0V10.877H2.95584V20L6.4908 19.9999Z" />
</symbol>

<symbol id="telegram" viewBox="0 0 20 16">
	<path fill="currentColor" d="M17.9806 0.344586C18.6185 0.0957106 19.2779 0.653835 19.1378 1.32396L16.2772 14.9978C16.1436 15.6388 15.3904 15.9276 14.8625 15.5397L10.5441 12.3699L8.34293 14.6175C7.95612 15.0118 7.28918 14.8513 7.12324 14.3255L5.53512 9.28408L1.27812 8.02671C0.71893 7.86183 0.686617 7.08396 1.22855 6.87171L17.9806 0.344586ZM15.8807 3.37865C16.0671 3.21377 15.8505 2.9229 15.6393 3.05433L6.45087 8.7529C6.28924 8.85308 6.21493 9.05027 6.27199 9.23233L7.52505 14.7348C7.54987 14.8189 7.67049 14.807 7.6813 14.7198L7.96143 10.5264C7.97218 10.423 8.02174 10.3281 8.09937 10.2592L15.8807 3.37865Z" />
</symbol>

<symbol id="instagram" viewBox="0 0 20 20">
	<path fill="currentColor" d="M6.6672 10C6.6672 8.15912 8.15912 6.6664 10 6.6664C11.8409 6.6664 13.3336 8.15912 13.3336 10C13.3336 11.8409 11.8409 13.3336 10 13.3336C8.15912 13.3336 6.6672 11.8409 6.6672 10ZM4.86512 10C4.86512 12.836 7.164 15.1349 10 15.1349C12.836 15.1349 15.1349 12.836 15.1349 10C15.1349 7.164 12.836 4.86512 10 4.86512C7.164 4.86512 4.86512 7.164 4.86512 10ZM14.1382 4.66152C14.1381 4.89886 14.2084 5.13089 14.3401 5.32829C14.4719 5.52568 14.6593 5.67956 14.8785 5.77047C15.0977 5.86138 15.339 5.88524 15.5718 5.83904C15.8046 5.79283 16.0185 5.67862 16.1863 5.51087C16.3542 5.34311 16.4686 5.12934 16.515 4.89658C16.5614 4.66382 16.5377 4.42253 16.447 4.20322C16.3563 3.98392 16.2025 3.79644 16.0052 3.6645C15.808 3.53257 15.576 3.4621 15.3386 3.462H15.3382C15.02 3.46215 14.715 3.58856 14.49 3.81347C14.265 4.03837 14.1384 4.34339 14.1382 4.66152ZM5.96 18.1398C4.98504 18.0954 4.45512 17.933 4.10296 17.7958C3.63608 17.614 3.30296 17.3975 2.95272 17.0478C2.60248 16.698 2.38568 16.3652 2.20472 15.8983C2.06744 15.5463 1.90504 15.0162 1.86072 14.0413C1.81224 12.9872 1.80256 12.6706 1.80256 10.0001C1.80256 7.3296 1.81304 7.01384 1.86072 5.95888C1.90512 4.98392 2.06872 4.45488 2.20472 4.10184C2.38648 3.63496 2.60296 3.30184 2.95272 2.9516C3.30248 2.60136 3.63528 2.38456 4.10296 2.2036C4.45496 2.06632 4.98504 1.90392 5.96 1.8596C7.01408 1.81112 7.33072 1.80144 10 1.80144C12.6693 1.80144 12.9862 1.81192 14.0412 1.8596C15.0162 1.904 15.5452 2.0676 15.8982 2.2036C16.3651 2.38456 16.6982 2.60184 17.0485 2.9516C17.3987 3.30136 17.6147 3.63496 17.7965 4.10184C17.9338 4.45384 18.0962 4.98392 18.1405 5.95888C18.189 7.01384 18.1986 7.3296 18.1986 10.0001C18.1986 12.6706 18.189 12.9863 18.1405 14.0413C18.0961 15.0162 17.9329 15.5462 17.7965 15.8983C17.6147 16.3652 17.3982 16.6983 17.0485 17.0478C16.6987 17.3972 16.3651 17.614 15.8982 17.7958C15.5462 17.933 15.0162 18.0954 14.0412 18.1398C12.9871 18.1882 12.6705 18.1979 10 18.1979C7.32952 18.1979 7.01376 18.1882 5.96 18.1398ZM5.8772 0.06056C4.81264 0.10904 4.0852 0.27784 3.44992 0.52504C2.792 0.78032 2.23504 1.1228 1.67848 1.67848C1.12192 2.23416 0.78032 2.792 0.52504 3.44992C0.27784 4.0856 0.10904 4.81264 0.06056 5.8772C0.01128 6.94344 0 7.28432 0 10C0 12.7157 0.01128 13.0566 0.06056 14.1228C0.10904 15.1874 0.27784 15.9144 0.52504 16.5501C0.78032 17.2076 1.122 17.7661 1.67848 18.3215C2.23496 18.877 2.792 19.219 3.44992 19.475C4.0864 19.7222 4.81264 19.891 5.8772 19.9394C6.944 19.9879 7.28432 20 10 20C12.7157 20 13.0566 19.9887 14.1228 19.9394C15.1874 19.891 15.9144 19.7222 16.5501 19.475C17.2076 19.219 17.765 18.8772 18.3215 18.3215C18.8781 17.7658 19.219 17.2076 19.475 16.5501C19.7222 15.9144 19.8918 15.1874 19.9394 14.1228C19.9879 13.0558 19.9992 12.7157 19.9992 10C19.9992 7.28432 19.9879 6.94344 19.9394 5.8772C19.891 4.81256 19.7222 4.0852 19.475 3.44992C19.219 2.7924 18.8772 2.23504 18.3215 1.67848C17.7658 1.12192 17.2076 0.78032 16.5509 0.52504C15.9144 0.27784 15.1874 0.10824 14.1236 0.06056C13.0574 0.01208 12.7165 0 10.0008 0C7.28512 0 6.944 0.01128 5.8772 0.06056Z" />
</symbol>

</svg>
